<svg width="24" height="20" viewBox="0 0 24 20" fill="none" xmlns="http://www.w3.org/2000/svg">
<path fill-rule="evenodd" clip-rule="evenodd" d="M21.5438 4.98119C21.5525 5.19799 21.5575 5.41606 21.5575 5.6354C21.5575 12.3076 16.6052 20 7.54897 20C4.76816 20 2.18012 19.1647 0 17.7326C0.385532 17.7785 0.777283 17.8027 1.17525 17.8027C3.48223 17.8027 5.60514 16.9955 7.29029 15.6411C5.13504 15.6003 3.31682 14.1402 2.69126 12.1342C2.99098 12.1941 3.29941 12.226 3.61654 12.226C4.0655 12.226 4.50078 12.1635 4.91367 12.0487C2.66142 11.5845 0.965074 9.54409 0.965074 7.09813C0.965074 7.07645 0.965074 7.05477 0.965074 7.03437C1.62918 7.41185 2.38781 7.63885 3.19494 7.66563C1.87418 6.76019 1.00487 5.21456 1.00487 3.46362C1.00487 2.53778 1.24738 1.6706 1.67147 0.924568C4.10032 3.97883 7.72805 5.98993 11.8197 6.20034C11.7363 5.83052 11.6928 5.44539 11.6928 5.04878C11.6928 2.26105 13.8966 0 16.6164 0C18.033 0 19.3127 0.613403 20.2106 1.59536C21.3324 1.36836 22.3857 0.948798 23.3371 0.369827C22.9703 1.54817 22.1892 2.53778 21.1719 3.16266C22.1681 3.04151 23.117 2.76988 24 2.36817C23.3396 3.38073 22.5051 4.26959 21.5438 4.98119Z" fill="white"/>
</svg>
